<svg width="157" height="216" viewBox="0 0 157 216" fill="none" xmlns="http://www.w3.org/2000/svg">
<path d="M7.65 169.84H16.23C16.45 169.84 16.64 169.76 16.8 169.6C16.96 169.44 17.04 169.25 17.04 169.03V165.85C17.04 165.63 16.96 165.44 16.8 165.28C16.64 165.12 16.45 165.04 16.23 165.04H7.65V161.8H16.89C17.11 161.8 17.3 161.72 17.46 161.56C17.62 161.4 17.7 161.21 17.7 160.99V157.81C17.7 157.59 17.62 157.4 17.46 157.24C17.3 157.08 17.11 157 16.89 157H2.91C2.69 157 2.5 157.08 2.34 157.24C2.18 157.4 2.1 157.59 2.1 157.81L2.1 177.19C2.1 177.41 2.18 177.6 2.34 177.76C2.5 177.92 2.69 178 2.91 178H17.13C17.35 178 17.54 177.92 17.7 177.76C17.86 177.6 17.94 177.41 17.94 177.19V174.01C17.94 173.79 17.86 173.6 17.7 173.44C17.54 173.28 17.35 173.2 17.13 173.2H7.65V169.84ZM31.673 162.4C31.893 162.4 32.083 162.48 32.243 162.64C32.403 162.8 32.483 162.99 32.483 163.21V166.24C32.483 166.46 32.403 166.65 32.243 166.81C32.083 166.97 31.893 167.05 31.673 167.05H28.943C28.043 167.05 27.353 167.29 26.873 167.77C26.413 168.23 26.183 168.91 26.183 169.81V177.19C26.183 177.41 26.103 177.6 25.943 177.76C25.783 177.92 25.593 178 25.373 178H21.593C21.373 178 21.183 177.92 21.023 177.76C20.863 177.6 20.783 177.41 20.783 177.19V163.21C20.783 162.99 20.863 162.8 21.023 162.64C21.183 162.48 21.373 162.4 21.593 162.4H25.073C25.293 162.4 25.483 162.48 25.643 162.64C25.803 162.8 25.883 162.99 25.883 163.21V163.9C26.923 162.9 28.253 162.4 29.873 162.4H31.673ZM43.4925 167.8C43.4925 166.7 42.9125 166.15 41.7525 166.15C41.0925 166.15 40.5525 166.33 40.1325 166.69C39.9725 166.85 39.8125 166.95 39.6525 166.99C39.4925 167.03 39.2925 167.05 39.0525 167.05H35.2425C35.0425 167.05 34.8725 166.99 34.7325 166.87C34.6125 166.75 34.5625 166.59 34.5825 166.39C34.6425 165.77 34.9825 165.13 35.6025 164.47C36.2425 163.79 37.1025 163.23 38.1825 162.79C39.2625 162.33 40.4525 162.1 41.7525 162.1C44.1325 162.1 45.9125 162.64 47.0925 163.72C48.2925 164.8 48.8925 166.26 48.8925 168.1V177.19C48.8925 177.41 48.8125 177.6 48.6525 177.76C48.4925 177.92 48.3025 178 48.0825 178H44.3025C44.0825 178 43.8925 177.92 43.7325 177.76C43.5725 177.6 43.4925 177.41 43.4925 177.19V176.35C42.9725 176.99 42.3525 177.48 41.6325 177.82C40.9125 178.14 40.0025 178.3 38.9025 178.3C37.2225 178.3 35.9025 177.86 34.9425 176.98C34.0025 176.1 33.5325 174.96 33.5325 173.56C33.5325 172.22 34.0525 171.12 35.0925 170.26C36.1325 169.4 37.7625 168.78 39.9825 168.4L43.4925 167.8ZM40.7325 171.79C40.1725 171.89 39.7325 172.07 39.4125 172.33C39.0925 172.57 38.9325 172.87 38.9325 173.23C38.9325 173.91 39.4125 174.25 40.3725 174.25C41.2525 174.25 41.9925 173.97 42.5925 173.41C43.1925 172.85 43.4925 172.17 43.4925 171.37L40.7325 171.79ZM55.5689 171.91C54.0489 171.63 52.8789 171.07 52.0589 170.23C51.2389 169.37 50.8289 168.27 50.8289 166.93C50.8289 166.03 51.1189 165.22 51.6989 164.5C52.2989 163.76 53.1289 163.18 54.1889 162.76C55.2689 162.32 56.4889 162.1 57.8489 162.1C59.1889 162.1 60.3989 162.31 61.4789 162.73C62.5789 163.13 63.4489 163.65 64.0889 164.29C64.7289 164.93 65.0789 165.6 65.1389 166.3C65.1589 166.52 65.0789 166.71 64.8989 166.87C64.7389 167.03 64.5489 167.11 64.3289 167.11H60.7589C60.5389 167.11 60.2789 167 59.9789 166.78C59.7189 166.58 59.4389 166.43 59.1389 166.33C58.8389 166.21 58.4089 166.15 57.8489 166.15C57.3689 166.15 56.9789 166.22 56.6789 166.36C56.3789 166.5 56.2289 166.71 56.2289 166.99C56.2289 167.23 56.2789 167.41 56.3789 167.53C56.4989 167.65 56.6989 167.74 56.9789 167.8C57.2789 167.86 57.7889 167.94 58.5089 168.04L60.3689 168.34C62.1089 168.62 63.4089 169.22 64.2689 170.14C65.1489 171.04 65.5889 172.12 65.5889 173.38C65.5889 174.28 65.2789 175.11 64.6589 175.87C64.0589 176.61 63.1789 177.2 62.0189 177.64C60.8789 178.08 59.5289 178.3 57.9689 178.3C56.4689 178.3 55.1589 178.09 54.0389 177.67C52.9389 177.23 52.0889 176.68 51.4889 176.02C50.9089 175.36 50.5889 174.69 50.5289 174.01C50.5089 173.79 50.5789 173.6 50.7389 173.44C50.9189 173.28 51.1189 173.2 51.3389 173.2H55.0589C55.1989 173.2 55.3089 173.23 55.3889 173.29C55.4889 173.33 55.5989 173.41 55.7189 173.53C55.9589 173.75 56.2289 173.93 56.5289 174.07C56.8289 174.19 57.3089 174.25 57.9689 174.25C58.5889 174.25 59.1089 174.17 59.5289 174.01C59.9689 173.83 60.1889 173.6 60.1889 173.32C60.1889 173 60.0289 172.79 59.7089 172.69C59.4089 172.57 58.7489 172.43 57.7289 172.27L55.5689 171.91ZM84.9281 157.81C84.9881 157.53 85.0981 157.33 85.2581 157.21C85.4381 157.07 85.6381 157 85.8581 157H89.7881C89.9681 157 90.1181 157.07 90.2381 157.21C90.3781 157.33 90.4481 157.48 90.4481 157.66L90.4181 157.9L86.5481 176.86C86.5081 177.14 86.3381 177.4 86.0381 177.64C85.7581 177.88 85.4281 178 85.0481 178H82.5581C82.1781 178 81.8581 177.89 81.5981 177.67C81.3381 177.43 81.1581 177.16 81.0581 176.86L78.8081 170.08L76.5581 176.86C76.4581 177.16 76.2781 177.43 76.0181 177.67C75.7581 177.89 75.4381 178 75.0581 178H72.5681C72.1881 178 71.8481 177.88 71.5481 177.64C71.2681 177.4 71.1081 177.14 71.0681 176.86L67.1981 157.9L67.1681 157.66C67.1681 157.48 67.2281 157.33 67.3481 157.21C67.4881 157.07 67.6481 157 67.8281 157H71.7581C71.9781 157 72.1681 157.07 72.3281 157.21C72.5081 157.33 72.6281 157.53 72.6881 157.81L74.6081 167.95L76.3781 162.52C76.5781 161.94 76.9181 161.65 77.3981 161.65H80.2181C80.6981 161.65 81.0381 161.94 81.2381 162.52L83.0081 167.95L84.9281 157.81ZM98.4291 159.94C98.4291 160.16 98.3491 160.35 98.1891 160.51C98.0291 160.67 97.8391 160.75 97.6191 160.75H93.8391C93.6191 160.75 93.4291 160.67 93.2691 160.51C93.1091 160.35 93.0291 160.16 93.0291 159.94V156.91C93.0291 156.69 93.1091 156.5 93.2691 156.34C93.4291 156.18 93.6191 156.1 93.8391 156.1H97.6191C97.8391 156.1 98.0291 156.18 98.1891 156.34C98.3491 156.5 98.4291 156.69 98.4291 156.91V159.94ZM98.4291 177.19C98.4291 177.41 98.3491 177.6 98.1891 177.76C98.0291 177.92 97.8391 178 97.6191 178H93.8391C93.6191 178 93.4291 177.92 93.2691 177.76C93.1091 177.6 93.0291 177.41 93.0291 177.19V163.21C93.0291 162.99 93.1091 162.8 93.2691 162.64C93.4291 162.48 93.6191 162.4 93.8391 162.4H97.6191C97.8391 162.4 98.0291 162.48 98.1891 162.64C98.3491 162.8 98.4291 162.99 98.4291 163.21V177.19ZM109.076 171.91C109.076 172.87 109.506 173.35 110.366 173.35H112.766C112.986 173.35 113.176 173.43 113.336 173.59C113.496 173.75 113.576 173.94 113.576 174.16V177.19C113.576 177.41 113.496 177.6 113.336 177.76C113.176 177.92 112.986 178 112.766 178H109.916C108.016 178 106.496 177.47 105.356 176.41C104.236 175.35 103.676 173.91 103.676 172.09V167.05H101.456C101.236 167.05 101.046 166.97 100.886 166.81C100.726 166.65 100.646 166.46 100.646 166.24V163.21C100.646 162.99 100.726 162.8 100.886 162.64C101.046 162.48 101.236 162.4 101.456 162.4H103.676V157.51C103.676 157.29 103.756 157.1 103.916 156.94C104.076 156.78 104.266 156.7 104.486 156.7H108.266C108.486 156.7 108.676 156.78 108.836 156.94C108.996 157.1 109.076 157.29 109.076 157.51V162.4H112.466C112.686 162.4 112.876 162.48 113.036 162.64C113.196 162.8 113.276 162.99 113.276 163.21V166.24C113.276 166.46 113.196 166.65 113.036 166.81C112.876 166.97 112.686 167.05 112.466 167.05H109.076V171.91ZM131.871 177.19C131.871 177.41 131.791 177.6 131.631 177.76C131.471 177.92 131.281 178 131.061 178H127.281C127.061 178 126.871 177.92 126.711 177.76C126.551 177.6 126.471 177.41 126.471 177.19V169.6C126.471 168.72 126.251 168.03 125.811 167.53C125.391 167.01 124.741 166.75 123.861 166.75C123.001 166.75 122.351 167 121.911 167.5C121.491 168 121.281 168.7 121.281 169.6V177.19C121.281 177.41 121.201 177.6 121.041 177.76C120.881 177.92 120.691 178 120.471 178H116.691C116.471 178 116.281 177.92 116.121 177.76C115.961 177.6 115.881 177.41 115.881 177.19V157.51C115.881 157.29 115.961 157.1 116.121 156.94C116.281 156.78 116.471 156.7 116.691 156.7H120.471C120.691 156.7 120.881 156.78 121.041 156.94C121.201 157.1 121.281 157.29 121.281 157.51V163.9C121.661 163.42 122.221 163 122.961 162.64C123.701 162.28 124.501 162.1 125.361 162.1C127.381 162.1 128.971 162.67 130.131 163.81C131.291 164.95 131.871 166.66 131.871 168.94V177.19ZM152.767 157C152.987 157 153.177 157.08 153.337 157.24C153.497 157.4 153.577 157.59 153.577 157.81V169.78C153.577 171.58 153.197 173.12 152.437 174.4C151.677 175.68 150.607 176.65 149.227 177.31C147.867 177.97 146.277 178.3 144.457 178.3C142.617 178.3 141.007 177.97 139.627 177.31C138.267 176.65 137.207 175.68 136.447 174.4C135.707 173.12 135.337 171.58 135.337 169.78V157.81C135.337 157.59 135.417 157.4 135.577 157.24C135.737 157.08 135.927 157 136.147 157H140.077C140.297 157 140.487 157.08 140.647 157.24C140.807 157.4 140.887 157.59 140.887 157.81V169.66C140.887 170.88 141.187 171.83 141.787 172.51C142.407 173.17 143.297 173.5 144.457 173.5C145.617 173.5 146.497 173.17 147.097 172.51C147.717 171.83 148.027 170.88 148.027 169.66V157.81C148.027 157.59 148.107 157.4 148.267 157.24C148.427 157.08 148.617 157 148.837 157H152.767Z" fill="#0077B6"/>
<path d="M2 25C2 11.1929 13.1929 0 27 0H152V125C152 138.807 140.807 150 127 150H2V25Z" fill="#0077B6"/>
<path d="M100.625 97.8056L76.25 111.517L51.875 97.8056V83.3195L44.9107 79.4504V101.878L76.25 119.507L107.589 101.878V79.4504L100.625 83.3195V97.8056Z" fill="white"/>
<path d="M76.25 31.5L27.5 56.7777V62.8136L76.25 89.8962L118.036 66.6827V85.9135H125V56.7777L76.25 31.5ZM111.071 62.5849L104.107 66.4537L76.25 81.9308L48.3929 66.4537L41.4286 62.5849L36.6017 59.9032L76.25 39.3448L115.898 59.9032L111.071 62.5849Z" fill="white"/>
<path d="M3.245 188.265H5.015L5.015 194.325C5.015 195.125 5.2175 195.702 5.6225 196.057C6.0325 196.412 6.555 196.59 7.19 196.59C7.83 196.59 8.3525 196.412 8.7575 196.057C9.1625 195.702 9.365 195.125 9.365 194.325L9.365 188.265H11.135L11.135 194.325C11.135 195.145 10.9775 195.845 10.6625 196.425C10.3475 197.005 9.895 197.447 9.305 197.753C8.72 198.058 8.015 198.21 7.19 198.21C6.365 198.21 5.6575 198.058 5.0675 197.753C4.4825 197.447 4.0325 197.005 3.7175 196.425C3.4025 195.845 3.245 195.145 3.245 194.325L3.245 188.265ZM17.9654 198V189.84C17.9654 189.315 18.0679 188.887 18.2729 188.557C18.4779 188.227 18.7479 187.985 19.0829 187.83C19.4229 187.67 19.7904 187.59 20.1854 187.59C20.4304 187.59 20.6829 187.607 20.9429 187.642C21.2029 187.677 21.4554 187.72 21.7004 187.77L21.3554 189.135C21.2304 189.09 21.1004 189.055 20.9654 189.03C20.8304 189 20.7004 188.985 20.5754 188.985C20.4354 188.985 20.3029 189.012 20.1779 189.067C20.0529 189.117 19.9504 189.207 19.8704 189.337C19.7904 189.467 19.7504 189.645 19.7504 189.87L19.7504 198H17.9654ZM16.8854 191.895V190.725H21.0854V191.895H16.8854ZM25.9182 198.21C25.2532 198.21 24.6507 198.068 24.1107 197.782C23.5757 197.497 23.1507 197.072 22.8357 196.507C22.5207 195.937 22.3632 195.225 22.3632 194.37C22.3632 193.5 22.5207 192.78 22.8357 192.21C23.1507 191.64 23.5757 191.215 24.1107 190.935C24.6507 190.655 25.2532 190.515 25.9182 190.515C26.5732 190.515 27.1657 190.655 27.6957 190.935C28.2307 191.215 28.6557 191.64 28.9707 192.21C29.2857 192.78 29.4432 193.5 29.4432 194.37C29.4432 195.225 29.2857 195.937 28.9707 196.507C28.6557 197.072 28.2307 197.497 27.6957 197.782C27.1657 198.068 26.5732 198.21 25.9182 198.21ZM25.8582 196.665C26.2082 196.665 26.5182 196.58 26.7882 196.41C27.0632 196.235 27.2782 195.977 27.4332 195.637C27.5932 195.297 27.6732 194.875 27.6732 194.37C27.6732 193.6 27.5207 193.02 27.2157 192.63C26.9157 192.24 26.5032 192.045 25.9782 192.045C25.6232 192.045 25.3082 192.132 25.0332 192.307C24.7582 192.477 24.5407 192.735 24.3807 193.08C24.2257 193.425 24.1482 193.855 24.1482 194.37C24.1482 195.13 24.3007 195.702 24.6057 196.087C24.9157 196.472 25.3332 196.665 25.8582 196.665ZM31.5493 198L31.5493 190.695H33.3193V198H31.5493ZM32.8843 194.805C32.8843 193.85 32.9918 193.06 33.2068 192.435C33.4218 191.81 33.7093 191.347 34.0693 191.047C34.4343 190.742 34.8393 190.59 35.2843 190.59C35.4043 190.59 35.5168 190.597 35.6218 190.612C35.7318 190.627 35.8393 190.65 35.9443 190.68L35.9143 192.45C35.7843 192.42 35.6443 192.395 35.4943 192.375C35.3443 192.355 35.2093 192.345 35.0893 192.345C34.6993 192.345 34.3718 192.44 34.1068 192.63C33.8468 192.815 33.6493 193.09 33.5143 193.455C33.3843 193.82 33.3193 194.27 33.3193 194.805H32.8843ZM41.0819 188.265H42.8519V194.325C42.8519 195.125 43.0544 195.702 43.4594 196.057C43.8694 196.412 44.3919 196.59 45.0269 196.59C45.6669 196.59 46.1894 196.412 46.5944 196.057C46.9994 195.702 47.2019 195.125 47.2019 194.325V188.265H48.9719V194.325C48.9719 195.145 48.8144 195.845 48.4994 196.425C48.1844 197.005 47.7319 197.447 47.1419 197.753C46.5569 198.058 45.8519 198.21 45.0269 198.21C44.2019 198.21 43.4944 198.058 42.9044 197.753C42.3194 197.447 41.8694 197.005 41.5544 196.425C41.2394 195.845 41.0819 195.145 41.0819 194.325V188.265ZM56.5834 198V193.74C56.5834 193.2 56.4534 192.792 56.1934 192.517C55.9334 192.242 55.5934 192.105 55.1734 192.105C54.8184 192.105 54.5034 192.202 54.2284 192.397C53.9584 192.592 53.7459 192.887 53.5909 193.282C53.4359 193.672 53.3584 194.16 53.3584 194.745H52.7734C52.7734 193.8 52.8909 193.015 53.1259 192.39C53.3609 191.76 53.6934 191.29 54.1234 190.98C54.5534 190.67 55.0584 190.515 55.6384 190.515C56.2384 190.515 56.7384 190.65 57.1384 190.92C57.5434 191.185 57.8459 191.56 58.0459 192.045C58.2509 192.53 58.3534 193.095 58.3534 193.74V198H56.5834ZM51.5884 198V190.725H53.1334L53.3584 192.165V198H51.5884ZM61.9691 189.39C61.6241 189.39 61.3541 189.3 61.1591 189.12C60.9691 188.935 60.8741 188.68 60.8741 188.355C60.8741 188.04 60.9691 187.79 61.1591 187.605C61.3541 187.415 61.6241 187.32 61.9691 187.32C62.3091 187.32 62.5766 187.415 62.7716 187.605C62.9666 187.79 63.0641 188.04 63.0641 188.355C63.0641 188.68 62.9666 188.935 62.7716 189.12C62.5766 189.3 62.3091 189.39 61.9691 189.39ZM61.0841 198V190.695H62.8541V198H61.0841ZM64.6409 190.725H66.6809L68.4209 196.485H68.2859L70.0259 190.725H72.0659L69.3509 198H67.3559L64.6409 190.725ZM76.3493 198.21C75.7293 198.21 75.1618 198.05 74.6468 197.73C74.1318 197.41 73.7193 196.962 73.4093 196.387C73.0993 195.807 72.9443 195.13 72.9443 194.355C72.9443 193.555 73.0968 192.867 73.4018 192.292C73.7118 191.717 74.1243 191.277 74.6393 190.972C75.1543 190.667 75.7243 190.515 76.3493 190.515C76.9293 190.515 77.4293 190.632 77.8493 190.867C78.2743 191.097 78.6143 191.412 78.8693 191.812C79.1293 192.207 79.3043 192.655 79.3943 193.155C79.4843 193.655 79.4893 194.17 79.4093 194.7H74.3543V193.74H78.1568L77.8118 193.965C77.8268 193.73 77.8143 193.492 77.7743 193.252C77.7393 193.012 77.6693 192.792 77.5643 192.592C77.4593 192.392 77.3093 192.232 77.1143 192.112C76.9243 191.987 76.6793 191.925 76.3793 191.925C76.0193 191.925 75.7143 192.015 75.4643 192.195C75.2143 192.375 75.0243 192.62 74.8943 192.93C74.7643 193.24 74.6993 193.59 74.6993 193.98V194.685C74.6993 195.095 74.7593 195.457 74.8793 195.772C75.0043 196.087 75.1868 196.335 75.4268 196.515C75.6718 196.695 75.9793 196.785 76.3493 196.785C76.6943 196.785 76.9843 196.705 77.2193 196.545C77.4543 196.385 77.6043 196.145 77.6693 195.825H79.4543C79.3793 196.295 79.2018 196.71 78.9218 197.07C78.6468 197.425 78.2893 197.705 77.8493 197.91C77.4093 198.11 76.9093 198.21 76.3493 198.21ZM81.5884 198V190.695H83.3584V198H81.5884ZM82.9234 194.805C82.9234 193.85 83.0309 193.06 83.2459 192.435C83.4609 191.81 83.7484 191.347 84.1084 191.047C84.4734 190.742 84.8784 190.59 85.3234 190.59C85.4434 190.59 85.5559 190.597 85.6609 190.612C85.7709 190.627 85.8784 190.65 85.9834 190.68L85.9534 192.45C85.8234 192.42 85.6834 192.395 85.5334 192.375C85.3834 192.355 85.2484 192.345 85.1284 192.345C84.7384 192.345 84.4109 192.44 84.1459 192.63C83.8859 192.815 83.6884 193.09 83.5534 193.455C83.4234 193.82 83.3584 194.27 83.3584 194.805H82.9234ZM90.192 198.21C89.492 198.21 88.8895 198.115 88.3845 197.925C87.8845 197.73 87.4995 197.452 87.2295 197.092C86.9595 196.727 86.822 196.29 86.817 195.78H88.452C88.467 196.14 88.6095 196.402 88.8795 196.567C89.1495 196.732 89.517 196.815 89.982 196.815C90.237 196.815 90.462 196.777 90.657 196.702C90.857 196.627 91.012 196.525 91.122 196.395C91.232 196.265 91.287 196.12 91.287 195.96C91.287 195.755 91.212 195.595 91.062 195.48C90.917 195.36 90.682 195.25 90.357 195.15L88.767 194.58C88.197 194.375 87.7595 194.105 87.4545 193.77C87.1495 193.435 86.997 193.035 86.997 192.57C86.997 191.955 87.2745 191.46 87.8295 191.085C88.3895 190.705 89.137 190.515 90.072 190.515C91.002 190.515 91.7195 190.72 92.2245 191.13C92.7345 191.535 92.997 192.05 93.012 192.675H91.347C91.322 192.435 91.207 192.245 91.002 192.105C90.797 191.965 90.487 191.895 90.072 191.895C89.697 191.895 89.402 191.972 89.187 192.127C88.977 192.277 88.872 192.455 88.872 192.66C88.872 193.005 89.167 193.265 89.757 193.44L91.482 194.085C92.042 194.275 92.477 194.52 92.787 194.82C93.097 195.12 93.252 195.5 93.252 195.96C93.252 196.345 93.122 196.71 92.862 197.055C92.607 197.395 92.2495 197.672 91.7895 197.887C91.3295 198.103 90.797 198.21 90.192 198.21ZM96.4222 189.39C96.0772 189.39 95.8072 189.3 95.6122 189.12C95.4222 188.935 95.3272 188.68 95.3272 188.355C95.3272 188.04 95.4222 187.79 95.6122 187.605C95.8072 187.415 96.0772 187.32 96.4222 187.32C96.7622 187.32 97.0297 187.415 97.2247 187.605C97.4197 187.79 97.5172 188.04 97.5172 188.355C97.5172 188.68 97.4197 188.935 97.2247 189.12C97.0297 189.3 96.7622 189.39 96.4222 189.39ZM95.5372 198V190.695H97.3072V198L95.5372 198ZM102.769 198.21C102.339 198.21 101.944 198.13 101.584 197.97C101.229 197.81 100.944 197.565 100.729 197.235C100.519 196.905 100.414 196.485 100.414 195.975V188.79H102.184V195.915C102.184 196.515 102.469 196.815 103.039 196.815C103.214 196.815 103.389 196.795 103.564 196.755C103.739 196.715 103.939 196.655 104.164 196.575L104.419 197.82C104.139 197.93 103.867 198.023 103.602 198.098C103.337 198.173 103.059 198.21 102.769 198.21ZM99.3941 191.895V190.725H104.164V191.895H99.3941ZM105.117 190.725H107.127L109.062 196.455H108.747L110.412 190.725H112.212L109.422 199.32C109.137 200.18 108.785 200.803 108.365 201.188C107.95 201.573 107.442 201.765 106.842 201.765C106.497 201.765 106.16 201.725 105.83 201.645C105.505 201.57 105.172 201.45 104.832 201.285V199.725C105.107 199.895 105.372 200.02 105.627 200.1C105.887 200.18 106.147 200.22 106.407 200.22C106.642 200.22 106.847 200.155 107.022 200.025C107.202 199.9 107.357 199.723 107.487 199.493C107.617 199.268 107.727 199.005 107.817 198.705L108.042 198L105.117 190.725Z" fill="#0096C7"/>
<path d="M3.245 205.265H5.015L5.015 211.325C5.015 212.125 5.2175 212.702 5.6225 213.057C6.0325 213.412 6.555 213.59 7.19 213.59C7.83 213.59 8.3525 213.412 8.7575 213.057C9.1625 212.702 9.365 212.125 9.365 211.325L9.365 205.265H11.135L11.135 211.325C11.135 212.145 10.9775 212.845 10.6625 213.425C10.3475 214.005 9.895 214.447 9.305 214.753C8.72 215.058 8.015 215.21 7.19 215.21C6.365 215.21 5.6575 215.058 5.0675 214.753C4.4825 214.447 4.0325 214.005 3.7175 213.425C3.4025 212.845 3.245 212.145 3.245 211.325L3.245 205.265ZM17.9654 215L17.9654 206.84C17.9654 206.315 18.0679 205.887 18.2729 205.557C18.4779 205.227 18.7479 204.985 19.0829 204.83C19.4229 204.67 19.7904 204.59 20.1854 204.59C20.4304 204.59 20.6829 204.607 20.9429 204.642C21.2029 204.677 21.4554 204.72 21.7004 204.77L21.3554 206.135C21.2304 206.09 21.1004 206.055 20.9654 206.03C20.8304 206 20.7004 205.985 20.5754 205.985C20.4354 205.985 20.3029 206.012 20.1779 206.067C20.0529 206.117 19.9504 206.207 19.8704 206.337C19.7904 206.467 19.7504 206.645 19.7504 206.87L19.7504 215H17.9654ZM16.8854 208.895V207.725H21.0854V208.895H16.8854ZM25.9182 215.21C25.2532 215.21 24.6507 215.068 24.1107 214.782C23.5757 214.497 23.1507 214.072 22.8357 213.507C22.5207 212.937 22.3632 212.225 22.3632 211.37C22.3632 210.5 22.5207 209.78 22.8357 209.21C23.1507 208.64 23.5757 208.215 24.1107 207.935C24.6507 207.655 25.2532 207.515 25.9182 207.515C26.5732 207.515 27.1657 207.655 27.6957 207.935C28.2307 208.215 28.6557 208.64 28.9707 209.21C29.2857 209.78 29.4432 210.5 29.4432 211.37C29.4432 212.225 29.2857 212.937 28.9707 213.507C28.6557 214.072 28.2307 214.497 27.6957 214.782C27.1657 215.068 26.5732 215.21 25.9182 215.21ZM25.8582 213.665C26.2082 213.665 26.5182 213.58 26.7882 213.41C27.0632 213.235 27.2782 212.977 27.4332 212.637C27.5932 212.297 27.6732 211.875 27.6732 211.37C27.6732 210.6 27.5207 210.02 27.2157 209.63C26.9157 209.24 26.5032 209.045 25.9782 209.045C25.6232 209.045 25.3082 209.132 25.0332 209.307C24.7582 209.477 24.5407 209.735 24.3807 210.08C24.2257 210.425 24.1482 210.855 24.1482 211.37C24.1482 212.13 24.3007 212.702 24.6057 213.087C24.9157 213.472 25.3332 213.665 25.8582 213.665ZM31.5493 215L31.5493 207.695H33.3193V215H31.5493ZM32.8843 211.805C32.8843 210.85 32.9918 210.06 33.2068 209.435C33.4218 208.81 33.7093 208.347 34.0693 208.047C34.4343 207.742 34.8393 207.59 35.2843 207.59C35.4043 207.59 35.5168 207.597 35.6218 207.612C35.7318 207.627 35.8393 207.65 35.9443 207.68L35.9143 209.45C35.7843 209.42 35.6443 209.395 35.4943 209.375C35.3443 209.355 35.2093 209.345 35.0893 209.345C34.6993 209.345 34.3718 209.44 34.1068 209.63C33.8468 209.815 33.6493 210.09 33.5143 210.455C33.3843 210.82 33.3193 211.27 33.3193 211.805H32.8843ZM39.9419 205.265H42.0419L44.3669 209.45H44.0219L46.4369 205.265H48.5219L45.0569 210.98V215H43.2869V210.98L39.9419 205.265ZM51.6848 215.21C51.0198 215.21 50.4173 215.068 49.8773 214.782C49.3423 214.497 48.9173 214.072 48.6023 213.507C48.2873 212.937 48.1298 212.225 48.1298 211.37C48.1298 210.5 48.2873 209.78 48.6023 209.21C48.9173 208.64 49.3423 208.215 49.8773 207.935C50.4173 207.655 51.0198 207.515 51.6848 207.515C52.3398 207.515 52.9323 207.655 53.4623 207.935C53.9973 208.215 54.4223 208.64 54.7373 209.21C55.0523 209.78 55.2098 210.5 55.2098 211.37C55.2098 212.225 55.0523 212.937 54.7373 213.507C54.4223 214.072 53.9973 214.497 53.4623 214.782C52.9323 215.068 52.3398 215.21 51.6848 215.21ZM51.6248 213.665C51.9748 213.665 52.2848 213.58 52.5548 213.41C52.8298 213.235 53.0448 212.977 53.1998 212.637C53.3598 212.297 53.4398 211.875 53.4398 211.37C53.4398 210.6 53.2873 210.02 52.9823 209.63C52.6823 209.24 52.2698 209.045 51.7448 209.045C51.3898 209.045 51.0748 209.132 50.7998 209.307C50.5248 209.477 50.3073 209.735 50.1473 210.08C49.9923 210.425 49.9148 210.855 49.9148 211.37C49.9148 212.13 50.0673 212.702 50.3723 213.087C50.6823 213.472 51.0998 213.665 51.6248 213.665ZM62.1609 207.695H63.9309V215H62.1609V207.695ZM57.1659 207.695H58.9359V212.165C58.9359 212.64 59.0534 212.997 59.2884 213.237C59.5234 213.472 59.8459 213.59 60.2559 213.59C60.6059 213.59 60.9234 213.5 61.2084 213.32C61.4984 213.135 61.7284 212.865 61.8984 212.51C62.0734 212.15 62.1609 211.705 62.1609 211.175H62.6409C62.6409 212.065 62.5259 212.802 62.2959 213.387C62.0659 213.972 61.7484 214.41 61.3434 214.7C60.9384 214.99 60.4709 215.135 59.9409 215.135C59.4209 215.135 58.9509 215.043 58.5309 214.857C58.1109 214.672 57.7784 214.375 57.5334 213.965C57.2884 213.555 57.1659 213.015 57.1659 212.345V207.695Z" fill="#00B4D8"/>
</svg>
